<svg width="72" height="72" viewBox="0 0 72 72" fill="none" xmlns="http://www.w3.org/2000/svg">
<path d="M36 0.125C16.1887 0.125 0.125 16.6051 0.125 36.9129C0.125 53.1688 10.407 66.9422 24.6609 71.8109C24.8852 71.859 25.0773 71.875 25.2695 71.875C26.5988 71.875 27.1113 70.898 27.1113 70.0492C27.1113 69.1684 27.0793 66.8621 27.0633 63.7871C25.718 64.0914 24.5168 64.2195 23.4438 64.2195C16.541 64.2195 14.9715 58.8543 14.9715 58.8543C13.3379 54.6102 10.9836 53.473 10.9836 53.473C7.86055 51.2789 10.9676 51.2148 11.2078 51.2148H11.2238C14.8273 51.5352 16.7172 55.0266 16.7172 55.0266C18.5109 58.1656 20.9133 59.0465 23.0594 59.0465C24.741 59.0465 26.2625 58.502 27.1594 58.0855C27.4797 55.7152 28.4086 54.0977 29.4336 53.1688C21.4738 52.2398 13.0977 49.0848 13.0977 34.991C13.0977 30.9711 14.491 27.6879 16.7812 25.1254C16.4129 24.1965 15.1797 20.4488 17.1336 15.3879C17.1336 15.3879 17.3898 15.3078 17.9344 15.3078C19.2316 15.3078 22.1625 15.8043 26.9992 19.1676C29.866 18.3508 32.925 17.9504 35.984 17.9344C39.027 17.9504 42.102 18.3508 44.9688 19.1676C49.8055 15.8043 52.7363 15.3078 54.0336 15.3078C54.5781 15.3078 54.8344 15.3879 54.8344 15.3879C56.7883 20.4488 55.5551 24.1965 55.1867 25.1254C57.477 27.7039 58.8703 30.9871 58.8703 34.991C58.8703 49.1168 50.4781 52.2238 42.4863 53.1367C43.7676 54.2738 44.9207 56.516 44.9207 59.9434C44.9207 64.8602 44.8727 68.832 44.8727 70.0332C44.8727 70.898 45.3691 71.875 46.6984 71.875C46.8906 71.875 47.1148 71.859 47.3391 71.8109C61.609 66.9422 71.875 53.1527 71.875 36.9129C71.875 16.6051 55.8113 0.125 36 0.125ZM23.4438 66.766C23.7961 66.766 24.1484 66.75 24.5168 66.734C24.5168 67.1824 24.5168 67.6148 24.5328 67.9992C24.5328 68.3836 24.5328 68.7359 24.5488 69.0402C22.0504 68.1113 19.6961 66.8781 17.4859 65.3566C19.0555 66.2055 21.0254 66.766 23.4438 66.766V66.766ZM25.2695 55.0906C25.1414 55.443 25.0293 55.8113 24.9332 56.1957C24.3887 56.3559 23.732 56.484 23.0594 56.484C21.3137 56.484 20.0164 55.6191 18.9594 53.7773C18.575 53.0406 17.8703 52.0637 16.8934 51.1668C19.584 53.425 22.707 54.5141 25.2695 55.0906ZM55.6992 64.5238C53.1687 66.4297 50.4141 67.9352 47.5312 69.0402V67.9992V59.9273C47.5312 57.9414 47.1949 56.3238 46.7305 55.0426C52.6883 53.7133 61.4648 49.6453 61.4648 34.959C61.4648 31.0191 60.3277 27.5117 58.0695 24.5328C58.566 22.4668 58.9504 18.8313 57.2527 14.443L56.8203 13.3059L55.6672 12.9215C55.427 12.8414 54.8984 12.7133 54.0656 12.7133C52.2238 12.7133 49.1168 13.3699 44.5363 16.3648C41.8137 15.6922 38.9629 15.3398 36.032 15.3398H35.984C33.0531 15.3398 30.1863 15.6922 27.4797 16.3648C22.8992 13.3699 19.7922 12.7133 17.9504 12.7133C17.1176 12.7133 16.5891 12.8574 16.3488 12.9375L15.1957 13.3219L14.7633 14.459C13.0656 18.8633 13.45 22.4988 13.9465 24.5488C11.6883 27.5438 10.5512 31.0512 10.5512 34.975C10.5512 42.9188 13.1137 47.7715 16.4129 50.7504C15.1156 49.6934 13.434 48.8125 11.416 48.6684H11.2078C9.10977 48.6684 7.63633 49.5332 7.17188 51.0227C6.41914 53.393 8.74141 55.0266 9.51016 55.5711L9.59023 55.6672L9.83047 55.7633C10.0867 55.9234 11.448 56.8844 12.5371 59.6871C12.8574 60.6801 13.5461 62.0094 14.7152 63.2426C12.6172 61.4488 10.7434 59.3988 9.12578 57.1406C4.91367 51.2469 2.6875 44.248 2.6875 36.9129C2.6875 32.2844 3.56836 27.8 5.31406 23.5719C6.9957 19.4879 9.39805 15.8363 12.473 12.6973C15.532 9.5582 19.1035 7.0918 23.0594 5.37813C27.1594 3.60039 31.5156 2.6875 36 2.6875C40.4844 2.6875 44.8406 3.58437 48.9406 5.36211C52.9125 7.07578 56.468 9.54219 59.527 12.6813C62.5859 15.8203 65.0043 19.4879 66.6859 23.5559C68.4316 27.784 69.3125 32.2684 69.3125 36.8969C69.3125 44.232 67.1023 51.2309 62.8902 57.1246C60.8723 59.9594 58.4539 62.4418 55.6992 64.5238V64.5238Z" fill="#5D78FF"/>
</svg>
