<svg width="61" height="61" viewBox="0 0 61 61" fill="none" xmlns="http://www.w3.org/2000/svg">
<path d="M45.5117 58.6172H3.57422C2.91708 58.6172 2.38281 58.0829 2.38281 57.4258V3.57422C2.38281 2.91708 2.91708 2.38281 3.57422 2.38281H5.95703C6.6151 2.38281 7.14844 1.84947 7.14844 1.19141C7.14844 0.53334 6.6151 0 5.95703 0H3.57422C1.60328 0 0 1.60328 0 3.57422V57.4258C0 59.3967 1.60328 61 3.57422 61H45.5117C46.1693 61 46.7031 60.4667 46.7031 59.8086C46.7031 59.1505 46.1698 58.6172 45.5117 58.6172Z" fill="#5D78FF"/>
<path d="M57.4258 0H15.4883C14.8302 0 14.2969 0.53334 14.2969 1.19141C14.2969 1.84947 14.8302 2.38281 15.4883 2.38281H57.4258C58.0829 2.38281 58.6172 2.91708 58.6172 3.57422V57.4258C58.6172 58.0829 58.0829 58.6172 57.4258 58.6172H55.043C54.3849 58.6172 53.8516 59.1505 53.8516 59.8086C53.8516 60.4667 54.3849 61 55.043 61H57.4258C59.3967 61 61 59.3963 61 57.4258V3.57422C61 1.60328 59.3967 0 57.4258 0Z" fill="#5D78FF"/>
<path d="M14.6841 21.0581C18.1494 21.0581 20.9688 18.2388 20.9688 14.7734C20.9688 11.3077 18.1494 8.48877 14.6841 8.48877C11.2183 8.48877 8.39941 11.3081 8.39941 14.7734C8.39941 18.2388 11.2183 21.0581 14.6841 21.0581ZM14.6841 10.8716C16.8356 10.8716 18.5859 12.6219 18.5859 14.7734C18.5859 16.9249 16.8356 18.6753 14.6841 18.6753C12.5326 18.6753 10.7822 16.9249 10.7822 14.7734C10.7822 12.6219 12.5326 10.8716 14.6841 10.8716Z" fill="#5D78FF"/>
<path d="M41.0142 21.6538C38.381 21.6538 35.8395 22.5697 33.8062 24.1883V23.4409C33.8062 22.7829 33.2723 22.2495 32.6147 22.2495H24.3047C23.6466 22.2495 23.1133 22.7829 23.1133 23.4409V51.3198C23.1133 51.9779 23.6466 52.5112 24.3047 52.5112H33.0615C33.7191 52.5112 34.2529 51.9779 34.2529 51.3198V35.2284C34.2529 33.2412 35.8697 31.6244 37.8569 31.6244C39.8442 31.6244 41.4609 33.2412 41.4609 35.2284V51.3198C41.4609 51.9779 41.9943 52.5112 42.6523 52.5112H51.4092C52.0668 52.5112 52.6006 51.9779 52.6006 51.3198V33.2402C52.6006 26.8513 47.4026 21.6538 41.0142 21.6538ZM50.2178 50.1284H43.8438V35.2284C43.8438 31.9274 41.158 29.2416 37.8569 29.2416C34.5554 29.2416 31.8701 31.9274 31.8701 35.2284V50.1284H25.4961V24.6323H31.4233V27.1357C31.4233 27.6513 31.7547 28.1083 32.2452 28.2684C32.7348 28.4281 33.2728 28.2545 33.5767 27.838C35.3145 25.4579 38.0947 24.0366 41.0142 24.0366C46.0888 24.0366 50.2178 28.1651 50.2178 33.2402V50.1284Z" fill="#5D78FF"/>
<path d="M10.3057 22.2495C9.6476 22.2495 9.11426 22.7829 9.11426 23.4409V51.3198C9.11426 51.9779 9.6476 52.5112 10.3057 52.5112H19.0625C19.7201 52.5112 20.2539 51.9779 20.2539 51.3198V23.4409C20.2539 22.7829 19.7201 22.2495 19.0625 22.2495H10.3057ZM17.8711 50.1284H11.4971V24.6323H17.8711V50.1284Z" fill="#5D78FF"/>
<path d="M10.7231 2.38281C11.3807 2.38281 11.9145 1.84947 11.9145 1.19141C11.9145 0.53334 11.3807 0 10.7231 0H10.7222C10.0641 0 9.53125 0.53334 9.53125 1.19141C9.53125 1.84947 10.0651 2.38281 10.7231 2.38281Z" fill="#5D78FF"/>
<path d="M50.2778 58.6172H50.2769C49.6188 58.6172 49.0859 59.1505 49.0859 59.8086C49.0859 60.4667 49.6197 61 50.2778 61C50.9359 61 51.4692 60.4667 51.4692 59.8086C51.4692 59.1505 50.9359 58.6172 50.2778 58.6172V58.6172Z" fill="#5D78FF"/>
</svg>
