<svg width="74" height="74" viewBox="0 0 74 74" fill="none" xmlns="http://www.w3.org/2000/svg">
<g clip-path="url(#clip0)">
<path d="M70.205 12.3333H3.79496C1.70764 12.3333 0 14.0409 0 16.1281V57.8717C0 59.9588 1.70764 61.6667 3.79496 61.6667H70.2052C72.2922 61.6667 74.0001 59.9591 74.0001 57.8717V16.1281C74 14.0409 72.2924 12.3333 70.205 12.3333ZM68.781 15.1792L39.183 37.3795C38.6508 37.7845 37.8339 38.0379 36.9999 38.0341C36.1659 38.0379 35.3492 37.7845 34.8169 37.3795L5.21888 15.1792H68.781ZM52.9707 38.8443L69.0989 58.7675C69.1151 58.7875 69.1349 58.8027 69.1521 58.8207H4.84787C4.86492 58.8018 4.88487 58.7875 4.90105 58.7675L21.0293 38.8443C21.5234 38.2334 21.4298 37.3378 20.8177 36.8425C20.2068 36.3483 19.3111 36.442 18.8168 37.053L2.84611 56.7817V16.9581L33.1101 39.6562C34.2477 40.5034 35.6317 40.8763 36.9997 40.8801C38.3658 40.8772 39.751 40.5043 40.8893 39.6562L71.1533 16.9581V56.7814L55.183 37.053C54.6887 36.4421 53.7922 36.3482 53.1822 36.8425C52.5702 37.3366 52.4763 38.2334 52.9707 38.8443Z" fill="#5D78FF"/>
</g>
<defs>
<clipPath id="clip0">
<rect width="74" height="74" fill="white"/>
</clipPath>
</defs>
</svg>
