<svg width="64" height="49" viewBox="0 0 64 49" fill="none" xmlns="http://www.w3.org/2000/svg">
<path d="M58.375 0H5.625C2.52725 0 0 2.5245 0 5.625V43.125C0 46.215 2.516 48.75 5.625 48.75H58.375C61.465 48.75 64 46.234 64 43.125V5.625C64 2.535 61.484 0 58.375 0ZM57.5983 3.75L32.1193 29.2291L6.41988 3.75H57.5983ZM3.75 42.3485V6.38363L21.8099 24.2886L3.75 42.3485ZM6.40163 45L24.4729 26.9287L30.805 33.2065C31.538 33.9333 32.7209 33.9309 33.4509 33.2007L39.625 27.0266L57.5984 45H6.40163ZM60.25 42.3484L42.2766 24.375L60.25 6.4015V42.3484Z" fill="#5D78FF"/>
</svg>
